HIERARCHY
ROOT mixamorig:Hips
{
	OFFSET -0.000008 104.274872 1.554316
	CHANNELS 6 Xposition Yposition Zposition Xrotation Yrotation Zrotation
	JOINT mixamorig:Spine
	{
		OFFSET -0.000005 10.181595 0.131519
		CHANNELS 6 Xposition Yposition Zposition Xrotation Yrotation Zrotation
		JOINT mixamorig:Spine1
		{
			OFFSET -0.000000 9.893959 -1.470707
			CHANNELS 6 Xposition Yposition Zposition Xrotation Yrotation Zrotation
			JOINT mixamorig:Spine2
			{
				OFFSET -0.000000 9.220757 -1.370641
				CHANNELS 6 Xposition Yposition Zposition Xrotation Yrotation Zrotation
				JOINT mixamorig:Neck
				{
					OFFSET 0.000001 16.740417 -2.049036
					CHANNELS 6 Xposition Yposition Zposition Xrotation Yrotation Zrotation
					JOINT mixamorig:Head
					{
						OFFSET 0.000000 9.617874 1.685006
						CHANNELS 6 Xposition Yposition Zposition Xrotation Yrotation Zrotation
						JOINT mixamorig:HeadTop_End
						{
							OFFSET 0.000002 22.037354 7.501101
							CHANNELS 6 Xposition Yposition Zposition Xrotation Yrotation Zrotation
							End Site
							{
								OFFSET 0.000168 2310.654297 -282.823242
							}
						}
					}
				}
				JOINT mixamorig:RightShoulder
				{
					OFFSET -4.569970 11.014908 -2.160885
					CHANNELS 6 Xposition Yposition Zposition Xrotation Yrotation Zrotation
					JOINT mixamorig:RightArm
					{
						OFFSET -10.592851 -0.524811 -2.232101
						CHANNELS 6 Xposition Yposition Zposition Xrotation Yrotation Zrotation
						JOINT mixamorig:RightForeArm
						{
							OFFSET -27.841511 0.000031 -0.000004
							CHANNELS 6 Xposition Yposition Zposition Xrotation Yrotation Zrotation
							JOINT mixamorig:RightHand
							{
								OFFSET -28.328831 -0.000015 0.000015
								CHANNELS 6 Xposition Yposition Zposition Xrotation Yrotation Zrotation
								JOINT mixamorig:RightHandThumb1
								{
									OFFSET -2.464806 -1.573990 2.681852
									CHANNELS 6 Xposition Yposition Zposition Xrotation Yrotation Zrotation
									JOINT mixamorig:RightHandThumb2
									{
										OFFSET -3.215179 -1.872803 1.924282
										CHANNELS 6 Xposition Yposition Zposition Xrotation Yrotation Zrotation
										JOINT mixamorig:RightHandThumb3
										{
											OFFSET -2.654831 -1.527969 1.512609
											CHANNELS 6 Xposition Yposition Zposition Xrotation Yrotation Zrotation
											JOINT mixamorig:RightHandThumb4
											{
												OFFSET -2.018814 -1.152008 1.108052
												CHANNELS 6 Xposition Yposition Zposition Xrotation Yrotation Zrotation
												End Site
												{
													OFFSET -188.809540 -114.533607 132.431396
												}
											}
										}
									}
								}
								JOINT mixamorig:RightHandIndex1
								{
									OFFSET -9.108284 -0.517868 2.259835
									CHANNELS 6 Xposition Yposition Zposition Xrotation Yrotation Zrotation
									JOINT mixamorig:RightHandIndex2
									{
										OFFSET -3.699989 0.000000 0.001215
										CHANNELS 6 Xposition Yposition Zposition Xrotation Yrotation Zrotation
										JOINT mixamorig:RightHandIndex3
										{
											OFFSET -2.850006 0.000031 -0.000522
											CHANNELS 6 Xposition Yposition Zposition Xrotation Yrotation Zrotation
											JOINT mixamorig:RightHandIndex4
											{
												OFFSET -2.772186 -0.000015 -0.000020
												CHANNELS 6 Xposition Yposition Zposition Xrotation Yrotation Zrotation
												End Site
												{
													OFFSET -277.218445 0.000000 -0.050231
												}
											}
										}
									}
								}
								JOINT mixamorig:RightHandMiddle1
								{
									OFFSET -9.532516 -0.000031 -0.000023
									CHANNELS 6 Xposition Yposition Zposition Xrotation Yrotation Zrotation
									JOINT mixamorig:RightHandMiddle2
									{
										OFFSET -3.700005 -0.000015 0.003713
										CHANNELS 6 Xposition Yposition Zposition Xrotation Yrotation Zrotation
										JOINT mixamorig:RightHandMiddle3
										{
											OFFSET -2.949974 0.000015 -0.002054
											CHANNELS 6 Xposition Yposition Zposition Xrotation Yrotation Zrotation
											JOINT mixamorig:RightHandMiddle4
											{
												OFFSET -2.946640 0.000000 -0.000156
												CHANNELS 6 Xposition Yposition Zposition Xrotation Yrotation Zrotation
												End Site
												{
													OFFSET -294.664337 0.000000 -0.113670
												}
											}
										}
									}
								}
								JOINT mixamorig:RightHandRing1
								{
									OFFSET -9.103600 -0.043076 -1.865134
									CHANNELS 6 Xposition Yposition Zposition Xrotation Yrotation Zrotation
									JOINT mixamorig:RightHandRing2
									{
										OFFSET -3.379288 0.000000 -0.001055
										CHANNELS 6 Xposition Yposition Zposition Xrotation Yrotation Zrotation
										JOINT mixamorig:RightHandRing3
										{
											OFFSET -2.889687 -0.000015 0.000379
											CHANNELS 6 Xposition Yposition Zposition Xrotation Yrotation Zrotation
											JOINT mixamorig:RightHandRing4
											{
												OFFSET -2.638809 -0.000015 0.000941
												CHANNELS 6 Xposition Yposition Zposition Xrotation Yrotation Zrotation
												End Site
												{
													OFFSET -263.880371 0.000000 0.516020
												}
											}
										}
									}
								}
								JOINT mixamorig:RightHandPinky1
								{
									OFFSET -8.076683 -0.486710 -3.806280
									CHANNELS 6 Xposition Yposition Zposition Xrotation Yrotation Zrotation
									JOINT mixamorig:RightHandPinky2
									{
										OFFSET -3.600014 -0.000015 -0.003747
										CHANNELS 6 Xposition Yposition Zposition Xrotation Yrotation Zrotation
										JOINT mixamorig:RightHandPinky3
										{
											OFFSET -2.099983 0.000000 -0.005739
											CHANNELS 6 Xposition Yposition Zposition Xrotation Yrotation Zrotation
											JOINT mixamorig:RightHandPinky4
											{
												OFFSET -2.115768 -0.000031 -0.003680
												CHANNELS 6 Xposition Yposition Zposition Xrotation Yrotation Zrotation
												End Site
												{
													OFFSET -211.577087 0.000000 -0.350686
												}
											}
										}
									}
								}
							}
						}
					}
				}
				JOINT mixamorig:LeftShoulder
				{
					OFFSET 4.570447 11.014725 -2.160855
					CHANNELS 6 Xposition Yposition Zposition Xrotation Yrotation Zrotation
					JOINT mixamorig:LeftArm
					{
						OFFSET 10.592371 -0.524597 -2.232119
						CHANNELS 6 Xposition Yposition Zposition Xrotation Yrotation Zrotation
						JOINT mixamorig:LeftForeArm
						{
							OFFSET 27.841532 -0.000031 0.000026
							CHANNELS 6 Xposition Yposition Zposition Xrotation Yrotation Zrotation
							JOINT mixamorig:LeftHand
							{
								OFFSET 28.328846 -0.000061 0.000022
								CHANNELS 6 Xposition Yposition Zposition Xrotation Yrotation Zrotation
								JOINT mixamorig:LeftHandThumb1
								{
									OFFSET 2.466141 -1.576172 2.681732
									CHANNELS 6 Xposition Yposition Zposition Xrotation Yrotation Zrotation
									JOINT mixamorig:LeftHandThumb2
									{
										OFFSET 3.217812 -1.872070 1.916482
										CHANNELS 6 Xposition Yposition Zposition Xrotation Yrotation Zrotation
										JOINT mixamorig:LeftHandThumb3
										{
											OFFSET 2.656029 -1.528778 1.514513
											CHANNELS 6 Xposition Yposition Zposition Xrotation Yrotation Zrotation
											JOINT mixamorig:LeftHandThumb4
											{
												OFFSET 2.020889 -1.154053 1.115139
												CHANNELS 6 Xposition Yposition Zposition Xrotation Yrotation Zrotation
												End Site
												{
													OFFSET 190.885437 -115.081749 130.048782
												}
											}
										}
									}
								}
								JOINT mixamorig:LeftHandIndex1
								{
									OFFSET 9.109314 -0.518021 2.259871
									CHANNELS 6 Xposition Yposition Zposition Xrotation Yrotation Zrotation
									JOINT mixamorig:LeftHandIndex2
									{
										OFFSET 3.699989 0.000000 -0.000322
										CHANNELS 6 Xposition Yposition Zposition Xrotation Yrotation Zrotation
										JOINT mixamorig:LeftHandIndex3
										{
											OFFSET 2.850006 0.000000 0.000352
											CHANNELS 6 Xposition Yposition Zposition Xrotation Yrotation Zrotation
											JOINT mixamorig:LeftHandIndex4
											{
												OFFSET 2.774864 -0.000031 -0.000027
												CHANNELS 6 Xposition Yposition Zposition Xrotation Yrotation Zrotation
												End Site
												{
													OFFSET 277.486267 0.000000 -0.009857
												}
											}
										}
									}
								}
								JOINT mixamorig:LeftHandMiddle1
								{
									OFFSET 9.533394 0.000061 0.000044
									CHANNELS 6 Xposition Yposition Zposition Xrotation Yrotation Zrotation
									JOINT mixamorig:LeftHandMiddle2
									{
										OFFSET 3.699989 -0.000015 -0.000231
										CHANNELS 6 Xposition Yposition Zposition Xrotation Yrotation Zrotation
										JOINT mixamorig:LeftHandMiddle3
										{
											OFFSET 2.949997 -0.000015 -0.000059
											CHANNELS 6 Xposition Yposition Zposition Xrotation Yrotation Zrotation
											JOINT mixamorig:LeftHandMiddle4
											{
												OFFSET 2.952896 0.000031 0.000063
												CHANNELS 6 Xposition Yposition Zposition Xrotation Yrotation Zrotation
												End Site
												{
													OFFSET 295.289337 0.000000 0.022810
												}
											}
										}
									}
								}
								JOINT mixamorig:LeftHandRing1
								{
									OFFSET 9.104523 -0.042999 -1.865074
									CHANNELS 6 Xposition Yposition Zposition Xrotation Yrotation Zrotation
									JOINT mixamorig:LeftHandRing2
									{
										OFFSET 3.150009 -0.000031 0.000043
										CHANNELS 6 Xposition Yposition Zposition Xrotation Yrotation Zrotation
										JOINT mixamorig:LeftHandRing3
										{
											OFFSET 2.949982 -0.000015 0.000040
											CHANNELS 6 Xposition Yposition Zposition Xrotation Yrotation Zrotation
											JOINT mixamorig:LeftHandRing4
											{
												OFFSET 2.644348 0.000000 0.000057
												CHANNELS 6 Xposition Yposition Zposition Xrotation Yrotation Zrotation
												End Site
												{
													OFFSET 264.434631 0.000000 0.012105
												}
											}
										}
									}
								}
								JOINT mixamorig:LeftHandPinky1
								{
									OFFSET 8.077789 -0.486847 -3.806259
									CHANNELS 6 Xposition Yposition Zposition Xrotation Yrotation Zrotation
									JOINT mixamorig:LeftHandPinky2
									{
										OFFSET 3.599953 0.000031 0.014727
										CHANNELS 6 Xposition Yposition Zposition Xrotation Yrotation Zrotation
										JOINT mixamorig:LeftHandPinky3
										{
											OFFSET 2.100021 0.000015 0.007705
											CHANNELS 6 Xposition Yposition Zposition Xrotation Yrotation Zrotation
											JOINT mixamorig:LeftHandPinky4
											{
												OFFSET 2.125504 0.000031 0.007517
												CHANNELS 6 Xposition Yposition Zposition Xrotation Yrotation Zrotation
												End Site
												{
													OFFSET 212.550781 0.000000 0.625752
												}
											}
										}
									}
								}
							}
						}
					}
				}
			}
		}
	}
	JOINT mixamorig:RightUpLeg
	{
		OFFSET -8.207787 -6.751648 -1.599560
		CHANNELS 6 Xposition Yposition Zposition Xrotation Yrotation Zrotation
		JOINT mixamorig:RightLeg
		{
			OFFSET -0.000002 -44.370117 0.345942
			CHANNELS 6 Xposition Yposition Zposition Xrotation Yrotation Zrotation
			JOINT mixamorig:RightFoot
			{
				OFFSET 0.000003 -44.423679 -3.043532
				CHANNELS 6 Xposition Yposition Zposition Xrotation Yrotation Zrotation
				JOINT mixamorig:RightToeBase
				{
					OFFSET -0.000002 -8.728671 10.710558
					CHANNELS 6 Xposition Yposition Zposition Xrotation Yrotation Zrotation
					JOINT mixamorig:RightToe_End
					{
						OFFSET -0.000001 -0.000679 9.278119
						CHANNELS 6 Xposition Yposition Zposition Xrotation Yrotation Zrotation
						End Site
						{
							OFFSET 0.000000 -0.067690 927.812134
						}
					}
				}
			}
		}
	}
	JOINT mixamorig:LeftUpLeg
	{
		OFFSET 8.207793 -6.751686 -1.599556
		CHANNELS 6 Xposition Yposition Zposition Xrotation Yrotation Zrotation
		JOINT mixamorig:LeftLeg
		{
			OFFSET -0.000004 -44.370014 0.346954
			CHANNELS 6 Xposition Yposition Zposition Xrotation Yrotation Zrotation
			JOINT mixamorig:LeftFoot
			{
				OFFSET -0.000001 -44.423672 -3.044401
				CHANNELS 6 Xposition Yposition Zposition Xrotation Yrotation Zrotation
				JOINT mixamorig:LeftToeBase
				{
					OFFSET -0.000002 -8.728669 10.710558
					CHANNELS 6 Xposition Yposition Zposition Xrotation Yrotation Zrotation
					JOINT mixamorig:LeftToe_End
					{
						OFFSET -0.000003 -0.000679 9.278133
						CHANNELS 6 Xposition Yposition Zposition Xrotation Yrotation Zrotation
						End Site
						{
							OFFSET 0.000000 -0.068021 927.813477
						}
					}
				}
			}
		}
	}
}
MOTION
Frames: 3
Frame Time: 0.033333
0.000006 104.270477 1.554256 0.000010 0.000003 -0.000113 -0.000005 10.181587 0.131522 0.000001 -0.000003 0.000084 -0.000000 9.893967 -1.470711 0.000001 0.000000 -0.000000 -0.000000 9.220802 -1.370642 0.000000 -0.000000 -0.000000 0.000001 16.740433 -2.049030 0.000000 -0.000000 -0.000000 0.000000 9.617859 1.685014 0.000000 0.000000 0.000000 0.000002 22.037384 7.501101 0.000000 -0.000000 0.000000 -4.569968 11.014880 -2.160881 0.000008 0.000001 -0.000038 -10.592871 -0.524773 -2.231897 71.527223 33.118669 -24.175941 -27.841528 0.000021 0.000539 -55.874656 115.487666 80.079658 -28.328812 -0.000006 0.000022 -0.000322 -0.000047 0.000006 -2.464504 -1.573658 2.682295 -54.000186 -181.951718 -33.293101 -3.215307 -1.872623 1.924685 158.220649 28.793834 -13.336489 -2.654933 -1.527908 1.513083 145.541004 26.363723 -47.067206 -2.018827 -1.152000 1.108065 -0.000001 -0.000003 0.000002 -9.108397 -0.517570 2.260059 86.183812 17.846591 -16.757082 -3.700073 0.000305 0.001466 83.057293 15.830304 -14.017230 -2.850080 0.000357 -0.000312 81.154429 11.830617 -10.140693 -2.772172 -0.000015 -0.000017 -0.000001 0.000001 0.000000 -9.532598 0.000257 0.000197 86.622467 16.529116 -15.729553 -3.700073 0.000318 0.003940 86.214753 12.737948 -11.839689 -2.950062 0.000341 -0.001847 87.881107 11.810052 -11.377184 -2.946615 -0.000004 -0.000154 -0.000004 0.000000 -0.000001 -9.103706 -0.042754 -1.864902 84.610170 16.841426 -15.305443 -3.379309 0.000311 -0.000860 85.427526 7.989578 -7.393575 -2.889747 0.000359 0.000609 91.399993 5.361917 -5.539991 -2.638808 -0.000026 0.000942 0.000004 -0.000000 -0.000000 -8.076756 -0.486388 -3.806058 78.647347 16.254990 -13.221394 -3.600023 0.000298 -0.003564 82.838836 5.731459 -4.755094 -2.100017 0.000325 -0.005523 86.908959 2.785159 -2.439701 -2.115773 -0.000042 -0.003677 0.000001 -0.000000 -0.000001 4.570446 11.014691 -2.160851 -0.000018 0.000010 -0.000021 10.592495 -0.524548 -2.232374 49.556793 -61.913739 30.953751 27.841730 -0.000059 -0.000078 57.783967 -109.291858 75.754776 28.328838 -0.000027 0.000016 0.000021 -0.000090 0.000000 2.466126 -1.576175 2.681860 118.119283 133.688631 -158.764086 3.217816 -1.871976 1.916561 290.001964 32.622209 24.759803 2.656037 -1.528764 1.514616 -96.968797 37.399162 42.315710 2.020887 -1.154059 1.115141 0.000002 0.000003 0.000004 9.109215 -0.517709 2.260071 -140.105061 -11.104131 -29.970201 3.699718 0.000179 -0.000193 -166.097537 -16.131838 -98.577730 2.849946 -0.000000 0.000413 -183.448609 -12.636874 -210.430970 2.774878 -0.000032 -0.000031 0.000002 -0.000002 0.000001 9.533361 0.000362 0.000259 -133.493493 -6.461537 -14.953763 3.699697 0.000232 -0.000135 -173.580542 -8.127712 -103.435114 2.950139 0.000255 -0.000046 -193.339187 -5.738483 -313.573548 2.952884 -0.000034 0.000052 -0.000003 0.000001 -0.000001 9.104501 -0.042751 -1.864855 -129.351830 -5.798479 -12.220291 3.149626 0.000281 0.000126 -177.914393 -2.938982 -109.272980 2.950000 0.000380 0.000040 -196.671923 -0.523732 3.583610 2.644338 0.000015 0.000060 -0.000000 0.000000 0.000001 8.077752 -0.486567 -3.806056 -131.313652 -5.433586 -12.862990 3.599998 0.000389 0.014851 -165.475621 1.548292 8.569328 2.099638 0.000171 0.007751 -182.518938 4.887154 230.469215 2.125506 -0.000015 0.007527 -0.000003 0.000003 0.000002 -8.207786 -6.751667 -1.599560 -0.077001 -0.000003 0.000080 -0.000002 -44.370110 0.345938 0.153719 -0.000000 -0.000000 0.000000 -44.423679 -3.043532 -0.076700 0.000000 -0.000002 -0.000006 -8.728667 10.710559 -0.000009 -0.000000 -0.000000 -0.000001 -0.000679 9.278123 0.000000 -0.000000 -0.000000 8.207792 -6.751710 -1.599556 -0.074518 -0.000003 0.000081 -0.000002 -44.370014 0.346960 0.148822 0.000002 0.000000 -0.000001 -44.423664 -3.044403 -0.074314 0.000000 -0.000002 -0.000004 -8.728671 10.710558 0.000007 -0.000000 -0.000000 0.000000 -0.000680 9.278137 -0.000000 0.000000 -0.000001 
0.000006 104.270477 1.554256 0.000010 0.000003 -0.000113 -0.000005 10.181587 0.131522 0.000001 -0.000003 0.000084 -0.000000 9.893967 -1.470711 0.000001 0.000000 -0.000000 -0.000000 9.220802 -1.370642 0.000000 -0.000000 -0.000000 0.000001 16.740433 -2.049030 0.000000 -0.000000 -0.000000 0.000000 9.617859 1.685014 0.000000 0.000000 0.000000 0.000002 22.037384 7.501101 0.000000 -0.000000 0.000000 -4.569968 11.014880 -2.160881 0.000008 0.000001 -0.000038 -10.592871 -0.524768 -2.231892 71.447242 33.264387 -24.250513 -27.841526 -0.000006 0.000539 -55.921590 115.652397 80.315443 -28.328850 0.000023 0.000029 -0.000318 -0.000044 0.000006 -2.464472 -1.573685 2.682310 -52.129206 -176.883909 -23.803983 -3.215288 -1.872613 1.924675 158.678750 28.833504 -13.122173 -2.654936 -1.527906 1.513092 145.159661 26.424190 -47.629334 -2.018827 -1.151978 1.108073 -0.000001 -0.000007 0.000002 -9.108394 -0.517569 2.260067 86.237579 17.771348 -16.701915 -3.700078 0.000285 0.001461 83.373353 15.545249 -13.839764 -2.850085 0.000358 -0.000333 81.506252 11.687062 -10.079501 -2.772164 -0.000015 -0.000022 0.000000 0.000000 0.000000 -9.532582 0.000275 0.000211 86.831143 16.448011 -15.709302 -3.700068 0.000325 0.003949 86.617522 12.489441 -11.688477 -2.950066 0.000338 -0.001825 88.258134 11.688119 -11.333498 -2.946623 0.000001 -0.000156 0.000000 0.000000 -0.000001 -9.103698 -0.042762 -1.864901 84.704325 16.820500 -15.311290 -3.379324 0.000322 -0.000854 85.581369 7.796785 -7.234831 -2.889736 0.000358 0.000607 91.503730 5.345555 -5.533205 -2.638807 -0.000016 0.000945 0.000002 0.000000 0.000002 -8.076752 -0.486385 -3.806058 78.783411 16.477121 -13.436504 -3.600029 0.000283 -0.003555 82.906551 5.899318 -4.908368 -2.100002 0.000318 -0.005515 87.124998 2.920895 -2.577594 -2.115784 -0.000051 -0.003681 0.000000 -0.000002 -0.000003 4.570446 11.014691 -2.160851 -0.000018 0.000010 -0.000021 10.592491 -0.524557 -2.232373 49.353885 -61.842575 30.775371 27.841726 -0.000073 -0.000087 57.513751 -108.989178 75.135045 28.328831 -0.000044 0.000026 0.000022 -0.000089 0.000000 2.466125 -1.576194 2.681814 144.538728 154.864581 -172.873181 3.217834 -1.872007 1.916523 298.012300 31.018078 20.383043 2.656039 -1.528771 1.514605 -92.239068 39.556259 40.132931 2.020895 -1.154073 1.115136 -0.000004 0.000003 0.000004 9.109232 -0.517683 2.260048 -143.367296 -8.292613 -24.682722 3.699736 0.000218 -0.000198 -166.682885 -13.662400 -91.477072 2.849872 0.000002 0.000424 -180.778660 -10.813854 -188.225042 2.774881 -0.000016 -0.000037 -0.000002 0.000003 -0.000001 9.533377 0.000380 0.000227 -136.900746 -3.347304 -8.446613 3.699749 0.000332 -0.000144 -174.617447 -4.076367 -74.251724 2.950089 0.000339 -0.000037 -192.631934 -2.801988 -335.054028 2.952851 -0.000047 0.000069 0.000004 0.000000 -0.000000 9.104504 -0.042712 -1.864875 -131.569934 -2.931622 -6.516264 3.149885 0.000481 0.000118 -177.721099 -0.659814 -32.341502 2.949978 0.000407 0.000037 -196.901199 0.269661 -1.805105 2.644320 0.000047 0.000058 0.000001 -0.000003 -0.000001 8.077757 -0.486552 -3.806055 -134.062707 -3.142953 -8.417176 3.600022 0.000391 0.014847 -165.043489 2.659722 16.463652 2.099704 0.000037 0.007746 -181.240381 5.404532 198.953302 2.125496 -0.000002 0.007524 -0.000002 -0.000000 -0.000000 -8.207786 -6.751667 -1.599560 -0.077001 -0.000003 0.000080 -0.000002 -44.370110 0.345938 0.153719 -0.000000 -0.000000 0.000000 -44.423679 -3.043532 -0.076700 0.000000 -0.000002 -0.000006 -8.728667 10.710559 -0.000009 -0.000000 -0.000000 -0.000001 -0.000679 9.278123 0.000000 -0.000000 -0.000000 8.207792 -6.751710 -1.599556 -0.074518 -0.000003 0.000081 -0.000002 -44.370014 0.346960 0.148822 0.000002 0.000000 -0.000001 -44.423664 -3.044403 -0.074314 0.000000 -0.000002 -0.000004 -8.728671 10.710558 0.000007 -0.000000 -0.000000 0.000000 -0.000680 9.278137 -0.000000 0.000000 -0.000001 
0.000006 104.270477 1.554256 0.000010 0.000003 -0.000113 -0.000005 10.181587 0.131522 0.000001 -0.000003 0.000084 -0.000000 9.893967 -1.470711 0.000001 0.000000 -0.000000 -0.000000 9.220802 -1.370642 0.000000 -0.000000 -0.000000 0.000001 16.740433 -2.049030 0.000000 -0.000000 -0.000000 0.000000 9.617859 1.685014 0.000000 0.000000 0.000000 0.000002 22.037384 7.501101 0.000000 -0.000000 0.000000 -4.569968 11.014880 -2.160881 0.000008 0.000001 -0.000038 -10.592862 -0.524780 -2.231855 71.296042 38.227257 -27.915338 -27.841541 0.000016 0.000567 -56.155066 114.224190 79.042788 -28.328808 -0.000007 0.000030 -0.000319 -0.000044 0.000008 -2.464468 -1.573703 2.682308 -52.547838 -177.828988 -25.618735 -3.215289 -1.872646 1.924691 158.840011 28.854660 -13.012183 -2.654953 -1.527906 1.513095 145.058369 26.403348 -48.224001 -2.018838 -1.151997 1.108055 -0.000005 -0.000003 0.000000 -9.108387 -0.517570 2.260071 86.208332 17.809976 -16.729761 -3.700091 0.000314 0.001456 83.369911 15.413256 -13.720999 -2.850086 0.000343 -0.000327 81.536176 11.629057 -10.034663 -2.772173 0.000001 -0.000020 0.000001 -0.000002 0.000001 -9.532579 0.000258 0.000197 86.548107 16.397056 -15.584581 -3.700067 0.000316 0.003920 86.761858 12.359811 -11.595273 -2.950045 0.000330 -0.001832 88.302400 11.674802 -11.329271 -2.946626 0.000001 -0.000154 -0.000000 0.000000 0.000000 -9.103702 -0.042752 -1.864892 84.371401 16.907097 -15.301965 -3.379301 0.000331 -0.000847 85.766002 7.943588 -7.394645 -2.889740 0.000357 0.000604 91.700836 5.562139 -5.775488 -2.638817 -0.000019 0.000943 -0.000005 0.000001 -0.000003 -8.076746 -0.486389 -3.806072 77.940026 16.708079 -13.425665 -3.600033 0.000283 -0.003545 83.143387 6.268004 -5.254417 -2.100002 0.000330 -0.005498 87.726280 3.264489 -2.933965 -2.115767 -0.000039 -0.003679 0.000002 0.000001 -0.000004 4.570446 11.014691 -2.160851 -0.000018 0.000010 -0.000021 10.592497 -0.524553 -2.232378 50.027642 -64.629627 32.887187 27.841728 -0.000080 -0.000073 58.209584 -108.320578 75.247293 28.328840 -0.000045 0.000032 0.000022 -0.000089 -0.000000 2.466122 -1.576194 2.681786 160.070469 167.343719 -177.277574 3.217828 -1.872006 1.916550 307.497739 24.848653 15.335655 2.656047 -1.528756 1.514608 -63.402488 21.910695 20.296170 2.020893 -1.154062 1.115148 0.000001 0.000006 -0.000004 9.109232 -0.517668 2.260057 -145.623472 -7.538463 -24.022875 3.699712 0.000218 -0.000196 -167.583855 -12.969037 -92.511729 2.850024 0.000010 0.000407 -184.236894 -9.612825 -227.507058 2.774879 -0.000031 -0.000025 -0.000001 -0.000002 0.000000 9.533384 0.000347 0.000230 -138.431091 -2.805091 -7.364359 3.699885 0.000430 -0.000160 -175.240729 -1.321710 -30.989907 2.949997 0.000388 -0.000049 -193.045366 0.606721 -365.282232 2.952879 -0.000027 0.000066 -0.000000 -0.000001 0.000004 9.104513 -0.042713 -1.864874 -133.403362 -2.920481 -6.778817 3.150095 0.000086 0.000118 -174.475994 4.668336 80.355714 2.949802 0.000450 0.000025 -196.301727 6.417059 -42.744847 2.644347 0.000011 0.000057 0.000001 0.000001 -0.000006 8.077769 -0.486573 -3.806046 -132.316979 -0.927689 -3.130244 3.600075 0.000230 0.014844 -158.921222 10.489057 49.804288 2.099882 -0.000031 0.007737 -176.775814 13.987621 150.228317 2.125493 -0.000019 0.007533 -0.000001 0.000005 0.000001 -8.207786 -6.751667 -1.599560 -0.077001 -0.000003 0.000080 -0.000002 -44.370110 0.345938 0.153719 -0.000000 -0.000000 0.000000 -44.423679 -3.043532 -0.076700 0.000000 -0.000002 -0.000006 -8.728667 10.710559 -0.000009 -0.000000 -0.000000 -0.000001 -0.000679 9.278123 0.000000 -0.000000 -0.000000 8.207792 -6.751710 -1.599556 -0.074518 -0.000003 0.000081 -0.000002 -44.370014 0.346960 0.148822 0.000002 0.000000 -0.000001 -44.423664 -3.044403 -0.074314 0.000000 -0.000002 -0.000004 -8.728671 10.710558 0.000007 -0.000000 -0.000000 0.000000 -0.000680 9.278137 -0.000000 0.000000 -0.000001 
